<svg width="36" xmlns="http://www.w3.org/2000/svg" height="32" fill="none"><g class="fills"><rect rx="0" ry="0" width="36" height="32" transform="matrix(1.000000, 0.000000, 0.000000, 1.000000, 0.000000, 0.000000)" class="frame-background"/></g><g style="fill: rgb(0, 0, 0);" class="frame-children"><path d="M3.000,6.000C3.000,4.161,4.495,2.667,6.333,2.667L14.667,2.667L14.667,9.333C14.667,10.255,15.411,11.000,16.333,11.000L23.000,11.000L23.000,13.010C19.151,14.099,16.333,17.635,16.333,21.833C16.333,24.911,17.849,27.630,20.172,29.297C20.005,29.323,19.839,29.333,19.667,29.333L6.333,29.333C4.495,29.333,3.000,27.839,3.000,26.000L3.000,6.000ZZM23.000,9.333L16.333,9.333L16.333,2.667L23.000,9.333ZZM25.500,14.333C29.642,14.333,33.000,17.691,33.000,21.833C33.000,25.975,29.642,29.333,25.500,29.333C21.358,29.333,18.000,25.975,18.000,21.833C18.000,17.691,21.358,14.333,25.500,14.333ZZM26.333,18.500C26.333,18.042,25.958,17.667,25.500,17.667C25.042,17.667,24.667,18.042,24.667,18.500L24.667,21.000L22.167,21.000C21.708,21.000,21.333,21.375,21.333,21.833C21.333,22.292,21.708,22.667,22.167,22.667L24.667,22.667L24.667,25.167C24.667,25.625,25.042,26.000,25.500,26.000C25.958,26.000,26.333,25.625,26.333,25.167L26.333,22.667L28.833,22.667C29.292,22.667,29.667,22.292,29.667,21.833C29.667,21.375,29.292,21.000,28.833,21.000L26.333,21.000L26.333,18.500ZZ" style="fill: rgb(1, 4, 9); fill-opacity: 1;" class="fills"/></g></svg>