<svg width="32" xmlns="http://www.w3.org/2000/svg" height="32" fill="none"><g class="fills"><rect rx="0" ry="0" width="32" height="32" transform="matrix(1.000000, 0.000000, 0.000000, 1.000000, 0.000000, 0.000000)" class="frame-background"/></g><g style="fill: rgb(0, 0, 0);" class="frame-children"><path d="M27.143,4.000C27.616,4.000,28.000,4.384,28.000,4.857L28.000,6.572C28.000,6.799,27.910,7.017,27.749,7.178L19.429,15.498L19.429,22.000C19.429,22.227,19.338,22.445,19.177,22.606L14.035,27.749C13.789,27.994,13.421,28.067,13.101,27.935C12.780,27.802,12.572,27.490,12.571,27.143L12.571,15.498L4.251,7.178C4.090,7.017,4.000,6.799,4.000,6.572L4.000,4.857C4.000,4.384,4.384,4.000,4.857,4.000ZM26.286,5.714L5.714,5.714L5.714,6.217L14.035,14.537C14.195,14.698,14.286,14.916,14.286,15.143L14.286,25.074L17.714,21.645L17.714,15.143C17.714,14.916,17.805,14.698,17.965,14.537L26.286,6.217Z" style="fill: rgb(1, 4, 9); fill-opacity: 1;" class="fills"/></g></svg>