<svg width="32" xmlns="http://www.w3.org/2000/svg" height="25.6" fill="none"><g class="fills"><rect rx="0" ry="0" width="32" height="25.6" transform="matrix(1.000000, 0.000000, 0.000000, 1.000000, 0.000000, 0.000000)" class="frame-background"/></g><g style="fill: rgb(0, 0, 0);" class="frame-children"><path d="M26.623,13.312C29.094,10.840,29.094,6.837,26.623,4.365C24.435,2.177,20.987,1.893,18.472,3.691L18.402,3.739C17.772,4.190,17.628,5.065,18.078,5.691C18.529,6.316,19.404,6.465,20.029,6.014L20.099,5.966C21.504,4.964,23.424,5.122,24.641,6.342C26.019,7.721,26.019,9.952,24.641,11.330L19.732,16.248C18.354,17.626,16.122,17.626,14.744,16.248C13.524,15.027,13.366,13.106,14.368,11.706L14.416,11.636C14.867,11.006,14.718,10.131,14.093,9.685C13.467,9.239,12.588,9.383,12.141,10.009L12.093,10.079C10.291,12.590,10.575,16.038,12.763,18.225C15.234,20.697,19.237,20.697,21.709,18.225L26.623,13.312ZZM3.890,12.288C1.418,14.760,1.418,18.763,3.890,21.235C6.077,23.423,9.525,23.707,12.041,21.909L12.111,21.861C12.741,21.410,12.885,20.535,12.434,19.909C11.984,19.284,11.109,19.135,10.483,19.586L10.413,19.634C9.009,20.636,7.088,20.478,5.872,19.258C4.494,17.875,4.494,15.644,5.872,14.266L10.781,9.352C12.159,7.974,14.390,7.974,15.768,9.352C16.989,10.573,17.146,12.494,16.144,13.898L16.096,13.968C15.646,14.598,15.794,15.473,16.420,15.919C17.046,16.366,17.925,16.221,18.371,15.596L18.419,15.526C20.222,13.010,19.938,9.562,17.750,7.375C15.278,4.903,11.275,4.903,8.803,7.375L3.890,12.288ZZ" style="fill: rgb(1, 4, 9); fill-opacity: 1;" class="fills"/></g></svg>