<svg width="24" xmlns="http://www.w3.org/2000/svg" height="23.4" id="screenshot-2f9f9767-073f-802d-8005-67828c656d97" fill="none" version="1.1"><g id="shape-2f9f9767-073f-802d-8005-67828c656d97"><g class="fills" id="fills-2f9f9767-073f-802d-8005-67828c656d97"><rect rx="0" ry="0" width="24" height="23.4" transform="matrix(1.000000, 0.000000, 0.000000, 1.000000, 0.000000, 0.000000)" class="frame-background"/></g><g class="frame-children"><g id="shape-2f9f9767-073f-802d-8005-67828c656da6" xml:space="preserve" style="fill: rgb(0, 0, 0);"><style id="shape-2f9f9767-073f-802d-8005-67828c656da7">#shape-2f9f9767-073f-802d-8005-67828c656da6{ .st0{fill:#00005B;}
	.st1{fill:#9999FF;} }</style><g id="shape-2f9f9767-073f-802d-8005-67828c656da8"><g class="fills" id="fills-2f9f9767-073f-802d-8005-67828c656da8"><path d="M4.250,0.000L19.750,0.000C22.100,0.000,24.000,1.900,24.000,4.250L24.000,19.150C24.000,21.500,22.100,23.400,19.750,23.400L4.250,23.400C1.900,23.400,0.000,21.500,0.000,19.150L0.000,4.250C0.000,1.900,1.900,0.000,4.250,0.000ZZ" class="st0"/></g></g><g id="shape-2f9f9767-073f-802d-8005-67828c656da9"><g class="fills" id="fills-2f9f9767-073f-802d-8005-67828c656da9"><path d="M9.640,14.000L5.920,14.000L5.160,16.360C5.140,16.450,5.060,16.510,4.970,16.500L3.090,16.500C2.980,16.500,2.950,16.440,2.980,16.320L6.200,7.090C6.230,6.990,6.260,6.900,6.300,6.780C6.340,6.570,6.360,6.350,6.360,6.130C6.350,6.080,6.390,6.030,6.440,6.020L6.470,6.020L9.030,6.020C9.100,6.020,9.150,6.050,9.160,6.100L12.810,16.300C12.840,16.410,12.810,16.460,12.710,16.460L10.620,16.460C10.550,16.470,10.480,16.420,10.460,16.350L9.640,14.000ZZM6.500,12.010L9.040,12.010C8.980,11.800,8.900,11.550,8.810,11.290C8.720,11.020,8.630,10.730,8.540,10.430C8.440,10.120,8.350,9.820,8.250,9.510C8.150,9.200,8.060,8.910,7.980,8.620C7.900,8.340,7.830,8.080,7.760,7.840L7.740,7.840C7.650,8.270,7.540,8.700,7.400,9.130C7.250,9.610,7.100,10.110,6.940,10.610C6.810,11.120,6.650,11.590,6.500,12.010ZZ" class="st1"/></g></g><g id="shape-2f9f9767-073f-802d-8005-67828c656daa"><g class="fills" id="fills-2f9f9767-073f-802d-8005-67828c656daa"><path d="M18.700,13.100L15.530,13.100C15.570,13.410,15.670,13.720,15.840,13.990C16.020,14.260,16.270,14.470,16.570,14.590C16.970,14.760,17.410,14.850,17.850,14.840C18.200,14.830,18.550,14.800,18.890,14.730C19.200,14.690,19.500,14.610,19.780,14.500C19.830,14.460,19.860,14.480,19.860,14.580L19.860,16.110C19.860,16.150,19.850,16.190,19.840,16.230C19.820,16.260,19.800,16.280,19.770,16.300C19.450,16.440,19.120,16.540,18.770,16.600C18.300,16.690,17.830,16.730,17.350,16.720C16.590,16.720,15.950,16.600,15.430,16.370C14.940,16.160,14.510,15.830,14.170,15.420C13.850,15.030,13.620,14.590,13.480,14.110C13.340,13.640,13.270,13.150,13.270,12.650C13.270,12.110,13.350,11.580,13.520,11.060C13.680,10.560,13.930,10.100,14.270,9.690C14.600,9.290,15.010,8.970,15.480,8.740C15.950,8.510,16.510,8.430,17.150,8.430C17.680,8.420,18.210,8.520,18.700,8.740C19.110,8.920,19.470,9.190,19.750,9.540C20.010,9.880,20.220,10.260,20.350,10.680C20.480,11.080,20.540,11.490,20.540,11.900C20.540,12.140,20.530,12.350,20.520,12.540C20.500,12.730,20.490,12.870,20.480,12.960C20.470,13.030,20.410,13.090,20.340,13.090C20.280,13.090,20.170,13.100,20.010,13.110C19.850,13.130,19.660,13.140,19.430,13.140C19.200,13.140,18.960,13.100,18.700,13.100ZZM15.530,11.640L17.640,11.640C17.900,11.640,18.090,11.640,18.210,11.630C18.290,11.620,18.370,11.600,18.440,11.550L18.440,11.450C18.440,11.320,18.420,11.200,18.380,11.080C18.200,10.520,17.670,10.140,17.080,10.160C16.530,10.130,16.010,10.420,15.750,10.920C15.630,11.150,15.560,11.390,15.530,11.640ZZ" class="st1"/></g></g></g></g></g></svg>