<svg width="28" xmlns="http://www.w3.org/2000/svg" height="22.745" fill="none"><g class="fills"><rect rx="0" ry="0" width="28" height="22.745" transform="matrix(1.000000, 0.000000, 0.000000, 1.000000, 0.000000, 0.000000)" class="frame-background"/></g><g xml:space="preserve" style="fill: rgb(0, 0, 0);" class="frame-children"><path d="M11.014,12.620C11.117,10.800,12.008,9.196,13.352,8.059C14.671,6.943,16.446,6.260,18.382,6.260C20.317,6.260,22.092,6.943,23.412,8.059C24.755,9.196,25.646,10.800,25.749,12.618C25.851,14.488,25.100,16.225,23.781,17.513C22.436,18.823,20.524,19.645,18.382,19.645C16.241,19.645,14.324,18.823,12.981,17.513C11.661,16.225,10.911,14.488,11.014,12.620ZZ" style="fill-rule: nonzero; clip-rule: evenodd; stroke-linejoin: round; stroke-miterlimit: 2; fill: rgb(255, 255, 255);" class="fills"/><path d="M14.596,12.784C14.649,11.850,15.106,11.028,15.796,10.444C16.473,9.871,17.383,9.521,18.377,9.521C19.370,9.521,20.280,9.871,20.957,10.444C21.647,11.028,22.104,11.850,22.157,12.783C22.209,13.743,21.824,14.634,21.147,15.295C20.457,15.967,19.476,16.389,18.377,16.389C17.278,16.389,16.295,15.967,15.605,15.295C14.928,14.634,14.544,13.743,14.596,12.784ZZ" style="fill-rule: nonzero; clip-rule: evenodd; stroke-linejoin: round; stroke-miterlimit: 2; fill: rgb(38, 87, 135);" class="fills"/><path d="M8.576,14.676C8.583,15.041,8.699,15.751,8.874,16.306C9.241,17.480,9.865,18.566,10.732,19.523C11.622,20.507,12.718,21.297,13.984,21.858C15.314,22.447,16.756,22.747,18.253,22.745C19.748,22.743,21.190,22.437,22.520,21.843C23.786,21.277,24.881,20.483,25.769,19.499C26.636,18.538,27.258,17.450,27.627,16.276C27.812,15.683,27.929,15.081,27.976,14.477C28.022,13.882,28.002,13.285,27.918,12.690C27.753,11.529,27.351,10.440,26.733,9.448C26.168,8.535,25.439,7.737,24.572,7.065L24.574,7.063L15.827,0.347C15.819,0.341,15.813,0.335,15.804,0.330C15.231,-0.111,14.266,-0.110,13.634,0.332C12.996,0.778,12.923,1.517,13.491,1.982L13.489,1.985L17.137,4.952L6.017,4.963L6.003,4.963C5.084,4.964,4.200,5.567,4.025,6.329C3.845,7.106,4.470,7.750,5.425,7.753L5.424,7.757L11.060,7.746L1.003,15.465C0.990,15.475,0.976,15.485,0.964,15.494C0.015,16.220,-0.291,17.428,0.306,18.193C0.913,18.970,2.202,18.972,3.161,18.197L8.650,13.705C8.650,13.705,8.570,14.312,8.576,14.676ZZM22.681,16.706C21.550,17.859,19.966,18.512,18.253,18.515C16.537,18.518,14.954,17.871,13.823,16.721C13.270,16.160,12.864,15.515,12.614,14.828C12.369,14.153,12.273,13.437,12.336,12.714C12.396,12.007,12.607,11.333,12.942,10.723C13.272,10.123,13.727,9.581,14.288,9.123C15.387,8.227,16.787,7.742,18.251,7.740C19.716,7.738,21.114,8.219,22.215,9.112C22.775,9.568,23.229,10.108,23.559,10.707C23.896,11.316,24.105,11.988,24.167,12.696C24.229,13.418,24.134,14.134,23.889,14.809C23.638,15.498,23.233,16.143,22.681,16.706ZZ" style="fill-rule: nonzero; clip-rule: evenodd; stroke-linejoin: round; stroke-miterlimit: 2; fill: rgb(234, 118, 0);" class="fills"/></g></svg>