<svg width="23" xmlns="http://www.w3.org/2000/svg" height="23" fill="none"><g class="fills"><rect rx="0" ry="0" width="23" height="23" transform="matrix(1.000000, 0.000000, 0.000000, 1.000000, 0.000000, 0.000000)" class="frame-background"/></g><g xmlns:xlink="http://www.w3.org/1999/xlink" xml:space="preserve" style="fill: rgb(0, 0, 0);" class="frame-children"><path d="M11.852,23.000L11.170,23.000C11.138,22.989,11.106,22.986,11.075,22.986C10.711,22.968,10.349,22.939,9.991,22.890C9.321,22.804,8.662,22.656,8.020,22.451C6.920,22.099,5.894,21.594,4.944,20.935C4.062,20.322,3.283,19.601,2.603,18.769C1.803,17.792,1.179,16.715,0.737,15.531C0.341,14.480,0.104,13.391,0.032,12.267C0.032,12.206,0.020,12.146,0.000,12.085L0.000,10.898C0.020,10.846,0.029,10.791,0.032,10.736C0.046,10.467,0.075,10.199,0.110,9.933C0.283,8.651,0.664,7.435,1.251,6.282C1.656,5.488,2.147,4.749,2.724,4.066C3.297,3.391,3.938,2.787,4.648,2.258C5.807,1.397,7.081,0.777,8.473,0.395C9.150,0.211,9.840,0.090,10.539,0.032C10.663,0.020,10.794,0.032,10.918,0.000L12.085,0.000C12.174,0.026,12.267,0.011,12.356,0.020C12.819,0.061,13.278,0.118,13.734,0.208C15.170,0.491,16.502,1.029,17.733,1.822C18.690,2.437,19.533,3.180,20.270,4.043C20.862,4.737,21.365,5.490,21.775,6.305C22.260,7.267,22.607,8.275,22.804,9.335C22.908,9.895,22.986,10.461,22.989,11.033C22.989,11.071,22.997,11.111,23.000,11.148L23.000,11.830C22.989,11.873,22.989,11.919,22.986,11.966C22.986,12.075,22.986,12.185,22.977,12.295C22.925,12.994,22.815,13.684,22.642,14.366C22.309,15.646,21.775,16.833,21.032,17.928C20.480,18.742,19.836,19.476,19.097,20.125C18.360,20.773,17.553,21.319,16.678,21.760C15.669,22.268,14.609,22.621,13.497,22.814C13.069,22.889,12.639,22.938,12.205,22.964C12.091,22.977,11.970,22.975,11.852,23.000ZL11.852,23.000ZZ" style="fill-rule: nonzero; clip-rule: evenodd; stroke-linejoin: round; stroke-miterlimit: 2; fill: rgb(56, 56, 56);" class="fills"/><defs><radialGradient cx="0" cy="0" r="1" id="a" gradientUnits="userSpaceOnUse" gradientTransform="matrix(0.368909, 0.000000, 0.000000, 0.368909, -0.489542, -0.489542) matrix(8.24888,0.695946,-1.28646,15.2481,32.3331,30.3478)"><stop offset="0" style="stop-color: rgb(255, 255, 255); stop-opacity: 1;"/><stop offset="1" style="stop-color: rgb(0, 155, 216); stop-opacity: 1;"/></radialGradient></defs><path d="M8.509,6.729C8.501,6.940,8.538,7.171,8.601,7.402C8.719,7.841,8.916,8.244,9.147,8.625C9.676,9.490,10.341,10.231,11.063,10.919C11.123,10.975,11.193,11.023,11.268,11.059C11.344,11.098,11.419,11.098,11.497,11.065C11.573,11.031,11.640,10.983,11.697,10.921C11.947,10.662,12.195,10.402,12.432,10.135C12.766,9.754,13.084,9.363,13.373,8.943C13.634,8.562,13.868,8.162,14.041,7.728C14.213,7.297,14.297,6.852,14.240,6.384C14.146,5.612,13.831,4.958,13.267,4.445C12.602,3.840,11.826,3.598,10.953,3.733C9.533,3.953,8.503,5.260,8.509,6.729ZL8.509,6.729ZZ" style="fill-rule: nonzero; clip-rule: evenodd; stroke-linejoin: round; stroke-miterlimit: 2; fill: url(&quot;#a&quot;);" class="fills"/><defs><radialGradient cx="0" cy="0" r="1" id="b" gradientUnits="userSpaceOnUse" gradientTransform="matrix(0.368909, 0.000000, 0.000000, 0.368909, -0.489542, -0.489542) matrix(16.9524,6.77224,-3.61893,9.05899,34.4954,35.0863)"><stop offset="0" style="stop-color: rgb(255, 255, 255); stop-opacity: 1;"/><stop offset="1" style="stop-color: rgb(255, 48, 68); stop-opacity: 1;"/></radialGradient></defs><path d="M15.858,17.249C15.679,17.255,15.478,17.232,15.277,17.190C14.684,17.060,14.180,16.790,13.792,16.312C13.557,16.020,13.359,15.704,13.188,15.371C12.987,14.979,12.819,14.571,12.673,14.158C12.495,13.658,12.343,13.147,12.226,12.631C12.161,12.341,12.234,12.160,12.554,12.061C12.960,11.934,13.370,11.820,13.787,11.728C14.478,11.577,15.174,11.480,15.884,11.504C16.085,11.512,16.285,11.533,16.484,11.568C17.058,11.669,17.546,11.933,17.944,12.352C18.624,13.066,18.895,13.917,18.727,14.887C18.486,16.274,17.256,17.260,15.858,17.249ZZ" style="fill-rule: nonzero; clip-rule: evenodd; stroke-linejoin: round; stroke-miterlimit: 2; fill: url(&quot;#b&quot;);" class="fills"/><defs><radialGradient cx="0" cy="0" r="1" id="c" gradientUnits="userSpaceOnUse" gradientTransform="matrix(0.368909, 0.000000, 0.000000, 0.368909, -0.489542, -0.489542) matrix(-15.3517,10.2302,-4.65015,-6.97815,29.7722,34.4249)"><stop offset="0" style="stop-color: rgb(255, 255, 255); stop-opacity: 1;"/><stop offset="1" style="stop-color: rgb(252, 255, 124); stop-opacity: 1;"/></radialGradient></defs><path d="M6.908,17.249C7.087,17.255,7.287,17.232,7.488,17.190C8.082,17.060,8.586,16.790,8.973,16.312C9.209,16.020,9.407,15.704,9.578,15.371C9.778,14.979,9.946,14.571,10.092,14.158C10.271,13.658,10.423,13.147,10.540,12.631C10.605,12.341,10.532,12.160,10.212,12.061C9.805,11.934,9.396,11.820,8.979,11.728C8.288,11.577,7.591,11.480,6.881,11.504C6.681,11.512,6.480,11.533,6.282,11.568C5.707,11.669,5.220,11.933,4.822,12.352C4.141,13.066,3.871,13.917,4.038,14.887C4.279,16.274,5.510,17.260,6.908,17.249ZZ" style="fill-rule: nonzero; clip-rule: evenodd; stroke-linejoin: round; stroke-miterlimit: 2; fill: url(&quot;#c&quot;);" class="fills"/></g></svg>