<svg width="24" xmlns="http://www.w3.org/2000/svg" height="22.824" id="screenshot-2f9f9767-073f-802d-8005-67828c656d99" fill="none" version="1.1"><g id="shape-2f9f9767-073f-802d-8005-67828c656d99"><g class="fills" id="fills-2f9f9767-073f-802d-8005-67828c656d99"><rect rx="0" ry="0" width="24" height="22.824" transform="matrix(1.000000, 0.000000, 0.000000, 1.000000, 0.000000, 0.000000)" class="frame-background"/></g><g class="frame-children"><g id="shape-2f9f9767-073f-802d-8005-67828c656db0" xml:space="preserve" style="fill: rgb(0, 0, 0);"><style id="shape-2f9f9767-073f-802d-8005-67828c656db2">#shape-2f9f9767-073f-802d-8005-67828c656db0{ .st0{fill:url(#SVGID_1_);}
	.st1{fill:url(#SVGID_2_);}
	.st2{fill:url(#SVGID_3_);}
	.st3{fill:url(#SVGID_4_);}
	.st4{fill:url(#SVGID_5_);}
	.st5{fill:url(#SVGID_6_);}
	.st6{fill:url(#SVGID_7_);} }</style><g id="shape-2f9f9767-073f-802d-8005-67828c656db3"><g class="fills" id="fills-2f9f9767-073f-802d-8005-67828c656db3"><path d="M16.796,0.665L24.000,0.665L14.372,18.450C14.372,18.450,12.750,13.738,12.052,12.057" class="st0" style="fill: rgb(105, 171, 117); fill-opacity: 1;"/></g></g><g id="shape-2f9f9767-073f-802d-8005-67828c656db4"><g class="fills" id="fills-2f9f9767-073f-802d-8005-67828c656db4"><path d="M18.573,22.656L24.000,22.656L24.000,0.665C23.995,12.157,19.165,22.656,18.573,22.656ZZ" class="st1" style="fill: rgb(105, 171, 117); fill-opacity: 1;"/></g></g><g id="shape-2f9f9767-073f-802d-8005-67828c656db5"><g class="fills" id="fills-2f9f9767-073f-802d-8005-67828c656db5"><path d="M14.372,18.450L9.893,18.450L0.000,0.665C1.754,0.442,5.258,0.141,6.994,0.000L14.372,18.450ZZ" class="st2" style="fill: rgb(105, 171, 117); fill-opacity: 1;"/></g></g><g id="shape-2f9f9767-073f-802d-8005-67828c656db6"><g class="fills" id="fills-2f9f9767-073f-802d-8005-67828c656db6"><path d="M5.737,11.428C4.251,17.297,-0.005,22.829,0.000,22.824C4.930,22.824,5.992,22.109,5.992,21.731C5.992,21.521,5.992,14.973,5.992,11.875C5.905,11.729,5.823,11.579,5.737,11.428ZZ" class="st3" style="fill: rgb(105, 171, 117); fill-opacity: 1;"/></g></g><g id="shape-2f9f9767-073f-802d-8005-67828c656db7"><g class="fills" id="fills-2f9f9767-073f-802d-8005-67828c656db7"><path d="M0.000,0.665L0.000,22.824C2.698,18.368,4.270,15.452,5.659,11.296C2.233,5.236,0.000,0.665,0.000,0.665ZZ" class="st4" style="fill: rgb(105, 171, 117); fill-opacity: 1;"/></g></g><g id="shape-2f9f9767-073f-802d-8005-67828c656db8"><g class="fills" id="fills-2f9f9767-073f-802d-8005-67828c656db8"><path d="M18.199,21.785L18.573,22.656L18.573,11.109L18.199,11.733" class="st5" style="fill: rgb(105, 171, 117); fill-opacity: 1;"/></g></g><g id="shape-2f9f9767-073f-802d-8005-67828c656db9"><g class="fills" id="fills-2f9f9767-073f-802d-8005-67828c656db9"><path d="M18.555,11.132L18.555,22.619L18.568,22.656C18.956,22.656,23.995,10.225,23.995,0.665C23.995,0.665,20.920,7.081,18.555,11.132ZZ" class="st6" style="fill: rgb(105, 171, 117); fill-opacity: 1;"/></g></g></g></g></g></svg>