<svg width="25" xmlns="http://www.w3.org/2000/svg" height="25" viewBox="-1 -1 25 25" fill="none"><g class="fills"><rect rx="0" ry="0" width="23" height="23" transform="matrix(1.000000, 0.000000, 0.000000, 1.000000, 0.000000, 0.000000)" class="frame-background"/></g><g xml:space="preserve" style="fill: rgb(0, 0, 0);" class="frame-children"><ellipse cx="11.5" cy="11.5" rx="12.5" ry="12.5" transform="matrix(1.000000, 0.000000, 0.000000, 1.000000, 0.000000, 0.000000)" style="fill: rgb(40, 40, 40); fill-opacity: 1;" class="fills"/><path d="M11.500,23.000C5.160,23.000,0.000,17.840,0.000,11.500C0.000,5.160,5.160,0.000,11.500,0.000C17.840,0.000,23.000,5.160,23.000,11.500C23.000,17.840,17.840,23.000,11.500,23.000ZL11.500,23.000ZM11.500,1.242C5.843,1.242,1.242,5.843,1.242,11.500C1.242,17.157,5.843,21.758,11.500,21.758C17.157,21.758,21.758,17.157,21.758,11.500C21.758,5.843,17.157,1.242,11.500,1.242ZL11.500,1.242Z" style="fill-rule: nonzero; clip-rule: evenodd; stroke-linejoin: round; stroke-miterlimit: 2; fill: rgb(253, 200, 66);" class="fills"/><path d="M10.493,9.555L13.487,12.783C13.611,12.907,13.687,13.073,13.687,13.245L13.418,19.647C13.411,20.151,13.742,20.551,14.218,20.385C17.047,19.399,18.778,17.840,19.634,15.805C19.758,15.515,19.723,15.184,19.509,14.956L16.902,12.176C16.702,11.969,16.591,11.693,16.591,11.403L16.571,9.858C16.571,9.458,16.895,9.141,17.295,9.141L19.385,9.168C20.372,9.168,20.455,8.803,20.310,8.403C19.337,5.698,17.578,3.787,14.901,2.780C14.598,2.663,14.266,2.877,14.253,3.201L14.080,5.926C14.066,6.223,13.825,6.450,13.535,6.450L12.073,6.443C11.686,6.443,11.355,6.257,11.197,6.098L8.237,3.139C8.058,2.966,7.796,2.911,7.568,3.015C5.195,4.098,3.567,5.850,2.615,8.327C2.470,8.713,2.780,9.120,3.194,9.120L9.562,9.161C9.907,9.175,10.245,9.313,10.493,9.555ZZM12.583,7.851C12.990,7.457,13.963,7.651,14.618,8.327C15.267,9.003,15.660,9.962,15.046,10.472C14.611,10.831,13.894,10.700,13.183,10.086C12.390,9.410,12.121,8.299,12.583,7.851ZZ" style="fill-rule: nonzero; clip-rule: evenodd; stroke-linejoin: round; stroke-miterlimit: 2; fill: rgb(253, 200, 66);" class="fills"/></g></svg>