<svg width="23" xmlns="http://www.w3.org/2000/svg" height="23" fill="none"><g class="fills"><rect rx="0" ry="0" width="23" height="23" transform="matrix(1.000000, 0.000000, 0.000000, 1.000000, 0.000000, 0.000000)" class="frame-background"/></g><g xml:space="preserve" style="fill: rgb(0, 0, 0);" class="frame-children"><path d="M23.000,11.500C23.000,17.851,17.851,23.000,11.500,23.000C5.149,23.000,0.000,17.851,0.000,11.500C0.000,5.149,5.149,0.000,11.500,0.000C17.851,0.000,23.000,5.149,23.000,11.500ZZ" style="fill-rule: nonzero; clip-rule: evenodd; stroke-linejoin: round; stroke-miterlimit: 2; fill: rgb(3, 4, 4);" class="fills"/><path d="M20.387,6.506L2.427,10.211L2.427,15.503L16.022,14.740L20.387,6.506ZZ" style="fill-rule: nonzero; clip-rule: evenodd; stroke-linejoin: round; stroke-miterlimit: 2; fill: rgb(69, 70, 70);" class="fills"/><path d="M5.428,19.135L8.890,19.068L11.810,13.885L15.427,19.514L19.672,18.129L13.950,11.305L18.665,3.761L15.365,3.748L11.779,8.766L7.898,4.075L4.316,4.115L9.430,11.681L5.428,19.135ZZ" style="fill-rule: nonzero; clip-rule: evenodd; stroke-linejoin: round; stroke-miterlimit: 2; fill: rgb(99, 175, 225);" class="fills"/></g></svg>