<svg width="24" xmlns="http://www.w3.org/2000/svg" height="23.4" id="screenshot-2f9f9767-073f-802d-8005-67828c656d96" fill="none" version="1.1"><g id="shape-2f9f9767-073f-802d-8005-67828c656d96"><g class="fills" id="fills-2f9f9767-073f-802d-8005-67828c656d96"><rect rx="0" ry="0" width="24" height="23.4" transform="matrix(1.000000, 0.000000, 0.000000, 1.000000, 0.000000, 0.000000)" class="frame-background"/></g><g class="frame-children"><g id="shape-2f9f9767-073f-802d-8005-67828c656da0" xml:space="preserve" style="fill: rgb(0, 0, 0);"><style id="shape-2f9f9767-073f-802d-8005-67828c656da1">#shape-2f9f9767-073f-802d-8005-67828c656da0{ .st0{fill:#001E36;}
	.st1{fill:#31A8FF;} }</style><g id="shape-2f9f9767-073f-802d-8005-67828c656da2"><g class="fills" id="fills-2f9f9767-073f-802d-8005-67828c656da2"><path d="M4.250,0.000L19.750,0.000C22.100,0.000,24.000,1.900,24.000,4.250L24.000,19.150C24.000,21.500,22.100,23.400,19.750,23.400L4.250,23.400C1.900,23.400,0.000,21.500,0.000,19.150L0.000,4.250C0.000,1.900,1.900,0.000,4.250,0.000ZZ" class="st0"/></g></g><g id="shape-2f9f9767-073f-802d-8005-67828c656da3"><g class="fills" id="fills-2f9f9767-073f-802d-8005-67828c656da3"><path d="M5.400,16.410L5.400,6.120C5.400,6.050,5.430,6.010,5.500,6.010C5.670,6.010,5.830,6.010,6.060,6.000C6.300,5.990,6.550,5.990,6.820,5.980C7.090,5.970,7.380,5.970,7.690,5.960C8.000,5.950,8.300,5.950,8.600,5.950C9.420,5.950,10.100,6.050,10.660,6.260C11.160,6.430,11.620,6.710,12.000,7.080C12.320,7.400,12.570,7.790,12.730,8.220C12.880,8.640,12.960,9.070,12.960,9.520C12.960,10.380,12.760,11.090,12.360,11.650C11.960,12.210,11.400,12.630,10.750,12.870C10.070,13.120,9.320,13.210,8.500,13.210C8.260,13.210,8.100,13.210,8.000,13.200C7.900,13.190,7.760,13.190,7.570,13.190L7.570,16.400C7.580,16.470,7.530,16.530,7.460,16.540C7.450,16.540,7.440,16.540,7.420,16.540L5.520,16.540C5.440,16.540,5.400,16.500,5.400,16.410ZZM7.580,7.940L7.580,11.300C7.720,11.310,7.850,11.320,7.970,11.320L8.500,11.320C8.890,11.320,9.280,11.260,9.650,11.140C9.970,11.050,10.250,10.860,10.470,10.610C10.680,10.360,10.780,10.020,10.780,9.580C10.790,9.270,10.710,8.960,10.550,8.690C10.380,8.430,10.140,8.230,9.850,8.120C9.480,7.970,9.080,7.910,8.670,7.920C8.410,7.920,8.180,7.920,7.990,7.930C7.790,7.920,7.650,7.930,7.580,7.940ZL7.580,7.940ZZ" class="st1"/></g></g><g id="shape-2f9f9767-073f-802d-8005-67828c656da4"><g class="fills" id="fills-2f9f9767-073f-802d-8005-67828c656da4"><path d="M19.200,10.690C18.900,10.530,18.580,10.420,18.240,10.350C17.870,10.270,17.500,10.220,17.120,10.220C16.920,10.210,16.710,10.240,16.520,10.290C16.390,10.320,16.280,10.390,16.210,10.490C16.160,10.570,16.130,10.670,16.130,10.760C16.130,10.850,16.170,10.940,16.230,11.020C16.320,11.130,16.440,11.220,16.570,11.290C16.800,11.410,17.040,11.520,17.280,11.620C17.820,11.800,18.340,12.050,18.820,12.350C19.150,12.560,19.420,12.840,19.610,13.180C19.770,13.500,19.850,13.850,19.840,14.210C19.850,14.680,19.710,15.150,19.450,15.540C19.170,15.940,18.780,16.250,18.330,16.430C17.840,16.640,17.240,16.750,16.520,16.750C16.060,16.750,15.610,16.710,15.160,16.620C14.810,16.560,14.460,16.450,14.140,16.300C14.070,16.260,14.020,16.190,14.030,16.110L14.030,14.370C14.030,14.340,14.040,14.300,14.070,14.280C14.100,14.260,14.130,14.270,14.160,14.290C14.550,14.520,14.960,14.680,15.400,14.780C15.780,14.880,16.180,14.930,16.580,14.930C16.960,14.930,17.230,14.880,17.410,14.790C17.570,14.720,17.680,14.550,17.680,14.370C17.680,14.230,17.600,14.100,17.440,13.970C17.280,13.840,16.950,13.690,16.460,13.500C15.950,13.320,15.480,13.080,15.040,12.780C14.730,12.560,14.470,12.270,14.280,11.930C14.120,11.610,14.040,11.260,14.050,10.910C14.050,10.480,14.170,10.070,14.390,9.700C14.640,9.300,15.010,8.980,15.440,8.780C15.910,8.540,16.500,8.430,17.210,8.430C17.620,8.430,18.040,8.460,18.450,8.520C18.750,8.560,19.040,8.640,19.310,8.750C19.350,8.760,19.390,8.800,19.410,8.840C19.420,8.880,19.430,8.920,19.430,8.960L19.430,10.590C19.430,10.630,19.410,10.670,19.380,10.690C19.290,10.710,19.240,10.710,19.200,10.690ZZ" class="st1"/></g></g></g></g></g></svg>