<svg width="32" xmlns="http://www.w3.org/2000/svg" height="32" fill="none"><g class="fills"><rect rx="0" ry="0" width="32" height="32" transform="matrix(1.000000, 0.000000, 0.000000, 1.000000, 0.000000, 0.000000)" class="frame-background"/></g><g style="fill: rgb(0, 0, 0);" class="frame-children"><g style="opacity: 0.6;"><path d="M5.333,8.889C4.364,8.889,3.556,9.697,3.556,10.667L3.556,26.667C3.556,27.636,4.364,28.444,5.333,28.444L23.111,28.444C24.081,28.444,24.889,27.636,24.889,26.667L24.889,24.889L23.111,24.889L23.111,26.667L5.333,26.667L5.333,19.556L5.333,10.667Z" style="fill: rgb(1, 4, 9); fill-opacity: 1;" class="fills"/></g><path d="M8.889,3.556C7.919,3.556,7.111,4.364,7.111,5.333L7.111,21.333C7.111,22.303,7.919,23.111,8.889,23.111L26.667,23.111C27.636,23.111,28.444,22.303,28.444,21.333L28.444,5.333C28.444,4.364,27.636,3.556,26.667,3.556ZM8.889,5.333L12.444,5.333L12.444,8.889L8.889,8.889ZM8.889,10.667L26.667,10.667L26.667,21.333L8.889,21.333Z" style="fill: rgb(1, 4, 9); fill-opacity: 1;" class="fills"/></g></svg>