<svg width="32" xmlns="http://www.w3.org/2000/svg" height="32" fill="none"><g class="fills"><rect rx="0" ry="0" width="32" height="32" transform="matrix(1.000000, 0.000000, 0.000000, 1.000000, 0.000000, 0.000000)" class="frame-background"/></g><g style="fill: rgb(0, 0, 0);" class="frame-children"><path d="M15.913,4.698C22.077,4.698,27.082,9.760,27.082,15.995C27.082,22.230,22.077,27.293,15.913,27.293C9.749,27.293,4.744,22.230,4.744,15.995C4.744,9.760,9.749,4.698,15.913,4.698ZZ" fill="none" style="fill: none;" class="fills"/><path d="M17.194,9.301C16.269,9.301,15.519,9.944,15.519,10.737C15.519,11.118,15.695,11.483,16.009,11.752C16.323,12.021,16.749,12.172,17.194,12.172C17.638,12.172,18.064,12.021,18.378,11.752C18.692,11.483,18.868,11.118,18.868,10.737C18.868,9.944,18.119,9.301,17.194,9.301ZZM15.755,13.608C14.287,13.608,13.082,14.365,13.082,14.365L12.971,15.032C12.971,15.032,13.374,14.805,14.006,14.805C14.316,14.805,14.923,14.761,14.923,15.590C14.923,16.941,13.856,19.274,13.847,20.423C13.839,21.503,14.344,22.221,15.895,22.221C17.130,22.221,18.386,21.598,18.386,21.598L18.622,20.831C18.408,21.039,17.941,21.104,17.489,21.104C16.946,21.104,16.599,20.976,16.599,20.317C16.599,19.156,17.672,16.923,17.672,15.406C17.672,14.346,17.223,13.608,15.755,13.608ZZ" fill-rule="evenodd" style="fill: rgb(1, 4, 9); fill-opacity: 1;" class="fills"/><path d="M15.997,3.559C22.864,3.559,28.438,9.134,28.438,16.000C28.438,22.867,22.864,28.442,15.997,28.442C9.131,28.442,3.556,22.867,3.556,16.000C3.556,9.134,9.131,3.559,15.997,3.559ZZM15.997,4.995C22.071,4.995,27.003,9.926,27.003,16.000C27.003,22.075,22.071,27.006,15.997,27.006C9.923,27.006,4.992,22.075,4.992,16.000C4.992,9.926,9.923,4.995,15.997,4.995ZZ" fill-rule="evenodd" style="fill: rgb(1, 4, 9); fill-opacity: 1;" class="fills"/></g></svg>