<svg width="32" xmlns="http://www.w3.org/2000/svg" height="32" fill="none"><g class="fills"><rect rx="0" ry="0" width="32" height="32" transform="matrix(1.000000, 0.000000, 0.000000, 1.000000, 0.000000, 0.000000)" class="frame-background"/></g><g style="fill: rgb(0, 0, 0);" class="frame-children"><g style="opacity: 0.6;"><path d="M26.681,20.425C26.916,20.429,27.141,20.526,27.305,20.696C27.469,20.865,27.559,21.092,27.556,21.328L27.556,26.661C27.555,27.152,27.158,27.550,26.667,27.550L5.333,27.550C4.842,27.550,4.444,27.152,4.444,26.661L4.444,21.328C4.440,21.008,4.608,20.709,4.885,20.548C5.162,20.386,5.505,20.386,5.781,20.548C6.058,20.709,6.227,21.008,6.222,21.328L6.222,25.773L25.778,25.773L25.778,21.328C25.774,21.088,25.868,20.856,26.038,20.686C26.208,20.515,26.440,20.422,26.681,20.425ZZ" style="fill: rgb(1, 4, 9); fill-opacity: 1;" class="fills"/></g><path d="M15.999,4.450C15.509,4.457,15.118,4.860,15.124,5.349L15.124,19.203L11.337,15.417C10.500,14.544,9.208,15.836,10.080,16.673L15.384,21.978C15.732,22.325,16.294,22.325,16.641,21.978L21.945,16.634C22.818,15.796,21.526,14.505,20.688,15.377L16.902,19.203L16.902,5.349C16.907,4.849,16.499,4.442,15.999,4.450ZZ" style="fill: rgb(1, 4, 9); fill-opacity: 1;" class="fills"/></g></svg>