<svg width="32" xmlns="http://www.w3.org/2000/svg" height="32" fill="none"><g class="fills"><rect rx="0" ry="0" width="32" height="32" transform="matrix(1.000000, 0.000000, 0.000000, 1.000000, 0.000000, 0.000000)" class="frame-background"/></g><g style="fill: rgb(0, 0, 0);" class="frame-children"><path d="M22.145,21.509C21.195,19.859,19.412,18.750,17.375,18.750L14.625,18.750C12.588,18.750,10.805,19.859,9.855,21.509C11.368,23.193,13.559,24.250,16.000,24.250C18.441,24.250,20.632,23.189,22.145,21.509ZZM5.000,16.000C5.000,9.925,9.925,5.000,16.000,5.000C22.075,5.000,27.000,9.925,27.000,16.000C27.000,22.075,22.075,27.000,16.000,27.000C9.925,27.000,5.000,22.075,5.000,16.000ZZM16.000,16.688C17.709,16.688,19.094,15.302,19.094,13.594C19.094,11.885,17.709,10.500,16.000,10.500C14.291,10.500,12.906,11.885,12.906,13.594C12.906,15.302,14.291,16.688,16.000,16.688ZZ" style="fill: rgb(1, 4, 9); fill-opacity: 1;" class="fills"/></g></svg>