<svg width="32" xmlns="http://www.w3.org/2000/svg" height="32" fill="none"><g class="fills"><rect rx="0" ry="0" width="32" height="32" transform="matrix(1.000000, 0.000000, 0.000000, 1.000000, 0.000000, 0.000000)" class="frame-background"/></g><g style="fill: rgb(0, 0, 0);" class="frame-children"><path d="M22.869,9.150C23.210,9.502,23.202,10.064,22.850,10.406L17.256,16.000L22.850,21.594C23.092,21.815,23.193,22.151,23.113,22.468C23.034,22.786,22.786,23.034,22.468,23.113C22.151,23.193,21.815,23.092,21.594,22.850L16.000,17.256L10.406,22.850C10.185,23.092,9.849,23.193,9.532,23.113C9.214,23.034,8.966,22.786,8.887,22.468C8.807,22.151,8.908,21.815,9.150,21.594L14.744,16.000L9.150,10.406C8.908,10.185,8.807,9.849,8.887,9.532C8.966,9.214,9.214,8.966,9.532,8.887C9.849,8.807,10.185,8.908,10.406,9.150L16.000,14.744L21.594,9.150C21.762,8.978,21.991,8.881,22.231,8.881C22.471,8.881,22.701,8.978,22.869,9.150ZZ" style="fill: rgb(1, 4, 9); fill-opacity: 1;" class="fills"/></g></svg>