<svg width="32" xmlns="http://www.w3.org/2000/svg" height="32" fill="none"><g class="fills"><rect rx="0" ry="0" width="32" height="32" transform="matrix(1.000000, 0.000000, 0.000000, 1.000000, 0.000000, 0.000000)" class="frame-background"/></g><g style="fill: rgb(0, 0, 0);" class="frame-children"><path d="M17.548,5.548C17.548,4.692,16.856,4.000,16.000,4.000C15.144,4.000,14.452,4.692,14.452,5.548L14.452,16.387C14.452,17.244,15.144,17.935,16.000,17.935C16.856,17.935,17.548,17.244,17.548,16.387L17.548,5.548ZZM10.556,9.835C11.215,9.289,11.302,8.311,10.755,7.653C10.208,6.995,9.231,6.908,8.573,7.455C6.018,9.584,4.387,12.797,4.387,16.387C4.387,22.798,9.589,28.000,16.000,28.000C22.411,28.000,27.613,22.798,27.613,16.387C27.613,12.797,25.977,9.584,23.423,7.455C22.765,6.908,21.787,7.000,21.240,7.653C20.694,8.306,20.785,9.289,21.439,9.835C23.321,11.398,24.511,13.755,24.511,16.387C24.511,21.090,20.698,24.903,15.995,24.903C11.292,24.903,7.479,21.090,7.479,16.387C7.479,13.755,8.674,11.398,10.556,9.835ZZ" style="fill: rgb(1, 4, 9); fill-opacity: 1;" class="fills"/></g></svg>