<svg width="32" xmlns="http://www.w3.org/2000/svg" height="32" fill="none"><g class="fills"><rect rx="0" ry="0" width="32" height="32" transform="matrix(1.000000, 0.000000, 0.000000, 1.000000, 0.000000, 0.000000)" class="frame-background"/></g><g style="fill: rgb(0, 0, 0);" class="frame-children"><path d="M25.771,5.258C25.762,5.118,25.760,7.065,25.768,10.157C23.684,5.900,17.780,3.459,12.828,4.818C7.876,6.177,4.843,10.367,4.439,15.109L6.217,15.107C6.702,10.479,9.127,7.679,13.297,6.535C17.467,5.390,22.544,7.433,24.240,11.552C22.817,11.568,20.662,11.533,19.449,11.554C18.367,11.539,18.433,13.368,19.477,13.320C20.358,13.316,25.883,13.322,27.542,13.332C27.540,10.709,27.543,8.311,27.556,5.271C27.537,4.158,25.779,4.168,25.771,5.258ZZ" style="fill: rgb(1, 4, 9); fill-opacity: 1;" class="fills"/><path d="M6.229,26.742C6.238,26.882,6.226,24.866,6.219,21.773C8.302,26.030,14.275,28.659,19.172,27.113C24.246,25.511,27.157,21.617,27.561,16.875L25.783,16.876C25.157,21.323,22.994,24.009,18.703,25.396C14.589,26.726,9.456,24.554,7.760,20.434C9.183,20.418,11.338,20.454,12.551,20.433C13.633,20.447,13.567,18.618,12.523,18.666C11.642,18.670,6.117,18.664,4.458,18.654C4.460,21.277,4.457,23.689,4.444,26.729C4.463,27.842,6.221,27.832,6.229,26.742ZZ" style="fill: rgb(1, 4, 9); fill-opacity: 1;" class="fills"/></g></svg>