<svg width="32" xmlns="http://www.w3.org/2000/svg" height="32" fill="none"><g class="fills"><rect rx="0" ry="0" width="32" height="32" transform="matrix(1.000000, 0.000000, 0.000000, 1.000000, 0.000000, 0.000000)" class="frame-background"/></g><g style="fill: rgb(0, 0, 0);" class="frame-children"><path d="M15.996,4.976C22.084,4.976,27.028,9.914,27.028,15.998C27.028,22.083,22.084,27.030,15.996,27.030C9.908,27.030,4.971,22.083,4.971,15.998C4.971,9.914,9.908,4.976,15.996,4.976ZZ" fill="none" style="fill: none;" class="fills"/><path d="M13.392,11.925L12.667,10.349C12.667,10.344,14.237,9.292,16.479,9.303C18.182,9.312,18.975,9.944,19.282,10.188C19.849,10.637,20.302,11.487,20.302,12.631C20.302,12.986,20.257,13.436,20.099,13.859C19.959,14.236,19.761,14.591,19.512,14.884C19.090,15.383,18.389,15.972,18.160,16.155C17.932,16.338,17.332,16.800,17.006,17.276C16.776,17.611,16.719,18.110,16.719,18.465L16.719,18.874L15.044,18.874L15.044,18.282C15.044,18.154,15.059,17.163,15.386,16.602C15.726,16.022,16.042,15.700,16.630,15.212C17.207,14.732,17.719,14.270,17.990,13.865C18.249,13.477,18.295,13.086,18.295,12.717C18.295,12.349,18.215,11.896,17.799,11.529C17.418,11.193,16.669,11.115,16.240,11.115C15.722,11.115,15.346,11.191,14.809,11.367C14.116,11.594,13.392,11.925,13.392,11.925ZZ" fill-rule="evenodd" style="fill: rgb(1, 4, 9); fill-opacity: 1;" class="fills"/><path d="M17.437,21.745C17.437,22.538,16.794,23.181,16.001,23.181C15.208,23.181,14.565,22.538,14.565,21.745C14.565,20.952,15.208,20.310,16.001,20.310C16.794,20.310,17.437,20.952,17.437,21.745ZZ" fill-rule="evenodd" style="fill: rgb(1, 4, 9); fill-opacity: 1;" class="fills"/><path d="M16.001,3.561C22.869,3.561,28.446,9.136,28.446,16.003C28.446,22.870,22.869,28.445,16.001,28.445C9.132,28.445,3.556,22.870,3.556,16.003C3.556,9.136,9.132,3.561,16.001,3.561ZZM16.001,4.996C22.077,4.996,27.010,9.928,27.010,16.003C27.010,22.077,22.077,27.009,16.001,27.009C9.925,27.009,4.992,22.077,4.992,16.003C4.992,9.928,9.925,4.996,16.001,4.996ZZ" fill-rule="evenodd" style="fill: rgb(1, 4, 9); fill-opacity: 1;" class="fills"/></g></svg>