<svg width="28" xmlns="http://www.w3.org/2000/svg" height="32" fill="none"><g class="fills"><rect rx="0" ry="0" width="28" height="32" transform="matrix(1.000000, 0.000000, 0.000000, 1.000000, 0.000000, 0.000000)" class="frame-background"/></g><g style="fill: rgb(0, 0, 0);" class="frame-children"><path d="M9.838,4.830L9.500,5.500L5.000,5.500C4.170,5.500,3.500,6.170,3.500,7.000C3.500,7.830,4.170,8.500,5.000,8.500L23.000,8.500C23.830,8.500,24.500,7.830,24.500,7.000C24.500,6.170,23.830,5.500,23.000,5.500L18.500,5.500L18.163,4.830C17.909,4.319,17.389,4.000,16.822,4.000L11.178,4.000C10.611,4.000,10.091,4.319,9.838,4.830ZZM23.000,10.000L5.000,10.000L5.994,25.891C6.069,27.077,7.053,28.000,8.239,28.000L19.761,28.000C20.947,28.000,21.931,27.077,22.006,25.891L23.000,10.000ZZ" style="fill: rgb(1, 4, 9); fill-opacity: 1;" class="fills"/></g></svg>