<svg width="32" xmlns="http://www.w3.org/2000/svg" height="28.444" fill="none"><g class="fills"><rect rx="0" ry="0" width="32" height="28.444" transform="matrix(1.000000, 0.000000, 0.000000, 1.000000, 0.000000, 0.000000)" class="frame-background"/></g><g style="fill: rgb(0, 0, 0);" class="frame-children"><path d="M20.667,25.111L23.000,25.111C23.554,25.111,24.065,24.819,24.342,24.338L29.786,15.005C30.068,14.524,30.068,13.931,29.791,13.444C29.514,12.958,29.003,12.667,28.444,12.667L9.000,12.667C8.446,12.667,7.935,12.958,7.658,13.440L4.333,19.137L4.333,6.444C4.333,6.017,4.683,5.667,5.111,5.667L10.823,5.667C11.027,5.667,11.226,5.749,11.372,5.895L12.660,7.183C13.681,8.204,15.067,8.778,16.510,8.778L22.222,8.778C22.650,8.778,23.000,9.128,23.000,9.556L23.000,11.111L25.333,11.111L25.333,9.556C25.333,7.840,23.938,6.444,22.222,6.444L16.510,6.444C15.684,6.444,14.892,6.119,14.308,5.535L13.020,4.242C12.437,3.659,11.644,3.333,10.818,3.333L5.111,3.333C3.395,3.333,2.000,4.728,2.000,6.444L2.000,22.000C2.000,23.716,3.395,25.111,5.111,25.111L6.263,25.111L20.667,25.111ZZ" style="fill: rgb(1, 4, 9); fill-opacity: 1;" class="fills"/></g></svg>