<svg width="32" xmlns="http://www.w3.org/2000/svg" height="32" fill="none"><g class="fills"><rect rx="0" ry="0" width="32" height="32" transform="matrix(1.000000, 0.000000, 0.000000, 1.000000, 0.000000, 0.000000)" class="frame-background"/></g><g style="fill: rgb(0, 0, 0);" class="frame-children"><path d="M19.562,3.549C14.677,3.549,10.673,7.553,10.673,12.438C10.673,14.562,11.458,16.494,12.715,18.028L3.822,26.921C3.590,27.144,3.497,27.475,3.578,27.786C3.659,28.098,3.902,28.341,4.214,28.422C4.525,28.503,4.856,28.410,5.079,28.178L13.972,19.285C15.506,20.542,17.438,21.327,19.562,21.327C24.447,21.327,28.451,17.323,28.451,12.438C28.451,7.553,24.447,3.549,19.562,3.549ZZM19.562,5.327C23.477,5.327,26.673,8.523,26.673,12.438C26.673,16.353,23.477,19.549,19.562,19.549C15.647,19.549,12.451,16.353,12.451,12.438C12.451,8.523,15.647,5.327,19.562,5.327ZZ" style="fill: rgb(1, 4, 9); fill-opacity: 1;" class="fills"/></g></svg>