<svg width="32" xmlns="http://www.w3.org/2000/svg" height="32" fill="none"><g class="fills"><rect rx="0" ry="0" width="32" height="32" transform="matrix(1.000000, 0.000000, 0.000000, 1.000000, 0.000000, 0.000000)" class="frame-background"/></g><g style="fill: rgb(0, 0, 0);" class="frame-children"><path d="M17.368,11.828C17.368,12.539,16.762,13.115,16.014,13.115C15.267,13.115,14.661,12.539,14.661,11.828C14.661,11.117,15.267,10.541,16.014,10.541C16.762,10.541,17.368,11.117,17.368,11.828ZZ" style="fill: rgb(1, 4, 9); fill-opacity: 1;" class="fills"/><path d="M17.361,20.300C17.361,20.642,17.219,20.969,16.965,21.210C16.711,21.452,16.367,21.587,16.008,21.587C15.649,21.587,15.305,21.452,15.051,21.210C14.797,20.969,14.654,20.642,14.654,20.300C14.654,19.589,15.260,19.013,16.008,19.013C16.755,19.013,17.361,19.589,17.361,20.300ZZ" style="fill: rgb(1, 4, 9); fill-opacity: 1;" class="fills"/><path d="M17.339,16.086C17.339,16.797,16.733,17.373,15.986,17.373C15.238,17.373,14.632,16.797,14.632,16.086C14.632,15.375,15.238,14.798,15.986,14.798C16.345,14.798,16.689,14.934,16.943,15.175C17.197,15.417,17.339,15.744,17.339,16.086ZZ" style="fill: rgb(1, 4, 9); fill-opacity: 1;" class="fills"/></g></svg>