<svg width="32" xmlns="http://www.w3.org/2000/svg" height="32" fill="none"><g class="fills"><rect rx="0" ry="0" width="32" height="32" transform="matrix(1.000000, 0.000000, 0.000000, 1.000000, 0.000000, 0.000000)" class="frame-background"/></g><g style="fill: rgb(0, 0, 0);" class="frame-children"><path d="M16.000,4.000C11.795,4.000,8.364,7.432,8.364,11.636L8.364,14.909L7.273,14.909C6.670,14.909,6.182,15.398,6.182,16.000L6.182,26.909C6.182,27.512,6.670,28.000,7.273,28.000L24.727,28.000C25.330,28.000,25.818,27.512,25.818,26.909L25.818,16.000C25.818,15.398,25.330,14.909,24.727,14.909L23.636,14.909L23.636,11.636C23.636,7.432,20.205,4.000,16.000,4.000ZZM16.000,6.182C19.025,6.182,21.455,8.611,21.455,11.636L21.455,14.909L10.545,14.909L10.545,11.636C10.545,8.611,12.975,6.182,16.000,6.182ZZM14.909,19.273L17.091,19.273L17.091,21.455L17.091,23.636L14.909,23.636L14.909,21.455Z" style="fill: rgb(1, 4, 9); fill-opacity: 1;" class="fills"/></g></svg>