<?xml version="1.0" encoding="UTF-8"?>
<svg xmlns="http://www.w3.org/2000/svg" xmlns:xlink="http://www.w3.org/1999/xlink" width="35px" height="40px" viewBox="0 0 35 40" version="1.1">
<g id="surface1">
<path style=" stroke:none;fill-rule:nonzero;fill:rgb(0.392157%,1.568628%,3.529412%);fill-opacity:1;" d="M 17.5 20 C 21.296875 20 24.375 16.921875 24.375 13.125 C 24.375 9.328125 21.296875 6.25 17.5 6.25 C 13.703125 6.25 10.625 9.328125 10.625 13.125 C 10.625 16.921875 13.703125 20 17.5 20 Z M 17.5 20 Z M 15.046875 22.578125 C 9.753906 22.578125 5.46875 26.863281 5.46875 32.15625 C 5.46875 33.035156 6.183594 33.75 7.0625 33.75 L 27.9375 33.75 C 28.816406 33.75 29.53125 33.035156 29.53125 32.15625 C 29.53125 26.863281 25.246094 22.578125 19.953125 22.578125 Z M 15.046875 22.578125 Z M 15.046875 22.578125 "/>
</g>
</svg>
